<svg width="24" height="24" viewBox="0 0 24 24" xmlns="http://www.w3.org/2000/svg">
<path d="M19 9.33334H18.68L17.43 6.00534C17.2068 5.41362 16.8228 4.90656 16.3275 4.54924C15.8321 4.19193 15.248 4.00067 14.65 4.00001H8.65C7.95529 3.99789 7.28142 4.25302 6.74342 4.72184C6.20541 5.19066 5.83662 5.84412 5.7 6.57068L5.18 9.33334H5C4.20435 9.33334 3.44129 9.67048 2.87868 10.2706C2.31607 10.8707 2 11.6846 2 12.5333V15.7333C2 16.0162 2.10536 16.2875 2.29289 16.4876C2.48043 16.6876 2.73478 16.8 3 16.8H4C4 17.6487 4.31607 18.4626 4.87868 19.0627C5.44129 19.6629 6.20435 20 7 20C7.79565 20 8.55871 19.6629 9.12132 19.0627C9.68393 18.4626 10 17.6487 10 16.8H14C14 17.6487 14.3161 18.4626 14.8787 19.0627C15.4413 19.6629 16.2044 20 17 20C17.7956 20 18.5587 19.6629 19.1213 19.0627C19.6839 18.4626 20 17.6487 20 16.8H21C21.2652 16.8 21.5196 16.6876 21.7071 16.4876C21.8946 16.2875 22 16.0162 22 15.7333V12.5333C22 11.6846 21.6839 10.8707 21.1213 10.2706C20.5587 9.67048 19.7956 9.33334 19 9.33334ZM13 6.13334H14.65C14.8486 6.13526 15.0421 6.2002 15.206 6.31987C15.3698 6.43955 15.4965 6.60856 15.57 6.80534L16.52 9.33334H13V6.13334ZM7.66 6.98668C7.70675 6.74212 7.83242 6.52279 8.01514 6.36687C8.19786 6.21095 8.42605 6.12831 8.66 6.13334H11V9.33334H7.22L7.66 6.98668ZM7 17.8667C6.80222 17.8667 6.60888 17.8041 6.44443 17.6869C6.27998 17.5697 6.15181 17.4031 6.07612 17.2082C6.00043 17.0133 5.98063 16.7988 6.01921 16.5919C6.0578 16.385 6.15304 16.1949 6.29289 16.0458C6.43275 15.8966 6.61093 15.795 6.80491 15.7538C6.99889 15.7127 7.19996 15.7338 7.38268 15.8145C7.56541 15.8953 7.72159 16.032 7.83147 16.2074C7.94135 16.3828 8 16.589 8 16.8C8 17.0829 7.89464 17.3542 7.70711 17.5542C7.51957 17.7543 7.26522 17.8667 7 17.8667ZM17 17.8667C16.8022 17.8667 16.6089 17.8041 16.4444 17.6869C16.28 17.5697 16.1518 17.4031 16.0761 17.2082C16.0004 17.0133 15.9806 16.7988 16.0192 16.5919C16.0578 16.385 16.153 16.1949 16.2929 16.0458C16.4327 15.8966 16.6109 15.795 16.8049 15.7538C16.9989 15.7127 17.2 15.7338 17.3827 15.8145C17.5654 15.8953 17.7216 16.032 17.8315 16.2074C17.9414 16.3828 18 16.589 18 16.8C18 17.0829 17.8946 17.3542 17.7071 17.5542C17.5196 17.7543 17.2652 17.8667 17 17.8667Z"/>
</svg>
