<svg width="24" height="24" viewBox="0 0 24 24" fill="none" xmlns="http://www.w3.org/2000/svg">
<path d="M17.7046 16.2785L13.4262 12L17.7046 7.72152C17.8938 7.5324 18 7.2759 18 7.00845C18 6.74099 17.8938 6.48449 17.7046 6.29537C17.5155 6.10625 17.259 6 16.9916 6C16.7241 6 16.4676 6.10625 16.2785 6.29537L12 10.5738L7.72153 6.29537C7.53241 6.10625 7.2759 6 7.00845 6C6.74099 6 6.48449 6.10625 6.29537 6.29537C6.10625 6.48449 6 6.74099 6 7.00845C6 7.2759 6.10625 7.5324 6.29537 7.72152L10.5738 12L6.29537 16.2785C6.10625 16.4676 6 16.7241 6 16.9916C6 17.259 6.10625 17.5155 6.29537 17.7046C6.48449 17.8938 6.74099 18 7.00845 18C7.2759 18 7.53241 17.8938 7.72153 17.7046L12 13.4262L16.2785 17.7046C16.4676 17.8938 16.7241 18 16.9916 18C17.259 18 17.5155 17.8938 17.7046 17.7046C17.8938 17.5155 18 17.259 18 16.9916C18 16.7241 17.8938 16.4676 17.7046 16.2785Z" fill="#110013"/>
</svg>
