<svg width="24" height="24" viewBox="0 0 24 24" fill="none" xmlns="http://www.w3.org/2000/svg">
<path d="M12 4C7.6 4 4 7.6 4 12C4 13.84 4.64 15.6 5.84 17.04L4.24 18.64C3.92 18.96 3.92 19.44 4.24 19.76C4.4 19.92 4.56 20 4.8 20H12C16.4 20 20 16.4 20 12C20 7.6 16.4 4 12 4ZM8.8 12.8C8.32 12.8 8 12.48 8 12C8 11.52 8.32 11.2 8.8 11.2C9.28 11.2 9.6 11.52 9.6 12C9.6 12.48 9.28 12.8 8.8 12.8ZM12 12.8C11.52 12.8 11.2 12.48 11.2 12C11.2 11.52 11.52 11.2 12 11.2C12.48 11.2 12.8 11.52 12.8 12C12.8 12.48 12.48 12.8 12 12.8ZM15.2 12.8C14.72 12.8 14.4 12.48 14.4 12C14.4 11.52 14.72 11.2 15.2 11.2C15.68 11.2 16 11.52 16 12C16 12.48 15.68 12.8 15.2 12.8Z" fill="#110013"/>
</svg>
