<svg width="24" height="24" viewBox="0 0 24 24" fill="none" xmlns="http://www.w3.org/2000/svg">
<path d="M8.8 4H4.8C4.58783 4 4.38434 4.08429 4.23431 4.23431C4.08429 4.38434 4 4.58783 4 4.8V8.8C4 9.01217 4.08429 9.21566 4.23431 9.36569C4.38434 9.51571 4.58783 9.6 4.8 9.6C5.01217 9.6 5.21566 9.51571 5.36569 9.36569C5.51571 9.21566 5.6 9.01217 5.6 8.8V5.6H8.8C9.01217 5.6 9.21566 5.51571 9.36569 5.36569C9.51571 5.21566 9.6 5.01217 9.6 4.8C9.6 4.58783 9.51571 4.38434 9.36569 4.23431C9.21566 4.08429 9.01217 4 8.8 4ZM8.8 18.4H5.6V15.2C5.6 14.9878 5.51571 14.7843 5.36569 14.6343C5.21566 14.4843 5.01217 14.4 4.8 14.4C4.58783 14.4 4.38434 14.4843 4.23431 14.6343C4.08429 14.7843 4 14.9878 4 15.2V19.2C4 19.4122 4.08429 19.6157 4.23431 19.7657C4.38434 19.9157 4.58783 20 4.8 20H8.8C9.01217 20 9.21566 19.9157 9.36569 19.7657C9.51571 19.6157 9.6 19.4122 9.6 19.2C9.6 18.9878 9.51571 18.7843 9.36569 18.6343C9.21566 18.4843 9.01217 18.4 8.8 18.4ZM19.2 4H15.2C14.9878 4 14.7843 4.08429 14.6343 4.23431C14.4843 4.38434 14.4 4.58783 14.4 4.8C14.4 5.01217 14.4843 5.21566 14.6343 5.36569C14.7843 5.51571 14.9878 5.6 15.2 5.6H18.4V8.8C18.4 9.01217 18.4843 9.21566 18.6343 9.36569C18.7843 9.51571 18.9878 9.6 19.2 9.6C19.4122 9.6 19.6157 9.51571 19.7657 9.36569C19.9157 9.21566 20 9.01217 20 8.8V4.8C20 4.58783 19.9157 4.38434 19.7657 4.23431C19.6157 4.08429 19.4122 4 19.2 4ZM19.2 14.4C18.9878 14.4 18.7843 14.4843 18.6343 14.6343C18.4843 14.7843 18.4 14.9878 18.4 15.2V18.4H15.2C14.9878 18.4 14.7843 18.4843 14.6343 18.6343C14.4843 18.7843 14.4 18.9878 14.4 19.2C14.4 19.4122 14.4843 19.6157 14.6343 19.7657C14.7843 19.9157 14.9878 20 15.2 20H19.2C19.4122 20 19.6157 19.9157 19.7657 19.7657C19.9157 19.6157 20 19.4122 20 19.2V15.2C20 14.9878 19.9157 14.7843 19.7657 14.6343C19.6157 14.4843 19.4122 14.4 19.2 14.4Z" fill="#110013"/>
</svg>
