<svg width="24" height="24" viewBox="0 0 24 24" fill="none" xmlns="http://www.w3.org/2000/svg">
<path d="M19.73 10.5994L12.5281 4.199C12.3821 4.07074 12.1944 4 12 4C11.8056 4 11.6179 4.07074 11.4719 4.199L4.27002 10.5994C4.14761 10.7077 4.0613 10.8508 4.02267 11.0096C3.98405 11.1683 3.99497 11.3351 4.05396 11.4875C4.11199 11.6378 4.21409 11.7672 4.34688 11.8585C4.47966 11.9499 4.63696 11.999 4.79815 11.9995H5.59836V19.1999C5.59836 19.4121 5.68266 19.6156 5.83273 19.7657C5.9828 19.9157 6.18633 20 6.39856 20H17.6014C17.8137 20 18.0172 19.9157 18.1673 19.7657C18.3173 19.6156 18.4016 19.4121 18.4016 19.1999V11.9995H19.2018C19.363 11.999 19.5203 11.9499 19.6531 11.8585C19.7859 11.7672 19.888 11.6378 19.946 11.4875C20.005 11.3351 20.016 11.1683 19.9773 11.0096C19.9387 10.8508 19.8524 10.7077 19.73 10.5994ZM12.8002 18.3999H11.1998V15.9997C11.1998 15.7876 11.2841 15.5841 11.4342 15.434C11.5842 15.284 11.7878 15.1997 12 15.1997C12.2122 15.1997 12.4158 15.284 12.5658 15.434C12.7159 15.5841 12.8002 15.7876 12.8002 15.9997V18.3999Z" fill="white"/>
</svg>
