<svg width="24" height="24" viewBox="0 0 24 24" fill="none" xmlns="http://www.w3.org/2000/svg">
<path d="M20.6962 10.5994L12.5942 4.199C12.4299 4.07074 12.2187 4 12 4C11.7813 4 11.5701 4.07074 11.4058 4.199L3.30377 10.5994C3.16606 10.7077 3.06896 10.8508 3.02551 11.0096C2.98205 11.1683 2.99434 11.3351 3.06071 11.4875C3.12599 11.6378 3.24085 11.7672 3.39023 11.8585C3.53962 11.9499 3.71658 11.999 3.89792 11.9995H4.79815V19.1999C4.79815 19.4121 4.893 19.6156 5.06182 19.7657C5.23065 19.9157 5.45963 20 5.69838 20H18.3016C18.5404 20 18.7694 19.9157 18.9382 19.7657C19.107 19.6156 19.2018 19.4121 19.2018 19.1999V11.9995H20.1021C20.2834 11.999 20.4604 11.9499 20.6098 11.8585C20.7592 11.7672 20.874 11.6378 20.9393 11.4875C21.0057 11.3351 21.0179 11.1683 20.9745 11.0096C20.931 10.8508 20.8339 10.7077 20.6962 10.5994ZM12.9002 18.3999H11.0998V15.9997C11.0998 15.7876 11.1946 15.5841 11.3634 15.434C11.5323 15.284 11.7612 15.1997 12 15.1997C12.2388 15.1997 12.4677 15.284 12.6366 15.434C12.8054 15.5841 12.9002 15.7876 12.9002 15.9997V18.3999ZM17.4014 18.3999H14.7007V15.9997C14.7007 15.3632 14.4162 14.7527 13.9097 14.3026C13.4032 13.8525 12.7163 13.5996 12 13.5996C11.2837 13.5996 10.5968 13.8525 10.0903 14.3026C9.58384 14.7527 9.29931 15.3632 9.29931 15.9997V18.3999H6.59861V11.9995H17.4014V18.3999ZM6.26553 10.3994L12 5.87111L17.7345 10.3994H6.26553Z" fill="#110013"/>
</svg>
