<svg width="24" height="24" viewBox="0 0 24 24" fill="none" xmlns="http://www.w3.org/2000/svg">
<path d="M19.197 5.93054L19.7648 5.37075C19.9154 5.22017 20 5.01593 20 4.80297C20 4.59001 19.9154 4.38577 19.7648 4.23518C19.6142 4.0846 19.41 4 19.197 4C18.9841 4 18.7798 4.0846 18.6292 4.23518L17.5097 5.36276L15.2465 7.62589L10.2005 12.664C9.3736 12.1185 8.37368 11.8993 7.39446 12.0489C6.41523 12.1986 5.52641 12.7064 4.90022 13.4739C4.27403 14.2415 3.95506 15.2142 4.00511 16.2035C4.05516 17.1929 4.47067 18.1284 5.17113 18.8289C5.87159 19.5293 6.80712 19.9448 7.79645 19.9949C8.78578 20.0449 9.75847 19.726 10.526 19.0998C11.2936 18.4736 11.8014 17.5848 11.9511 16.6055C12.1007 15.6263 11.8815 14.6264 11.336 13.7995L15.8063 9.32125L17.5017 11.0246C17.5762 11.0986 17.6647 11.1573 17.7619 11.1971C17.8591 11.237 17.9632 11.2573 18.0683 11.257C18.1734 11.2566 18.2773 11.2355 18.3743 11.195C18.4712 11.1544 18.5592 11.0952 18.6332 11.0206C18.7073 10.946 18.7659 10.8576 18.8058 10.7604C18.8456 10.6632 18.866 10.5591 18.8656 10.454C18.8652 10.3489 18.8442 10.2449 18.8036 10.148C18.7631 10.0511 18.7038 9.96307 18.6292 9.88903L16.9339 8.19368L18.0695 7.06611L18.6292 7.62589C18.7033 7.70046 18.7913 7.75971 18.8882 7.80026C18.9852 7.84081 19.0891 7.86188 19.1942 7.86225C19.2993 7.86262 19.4034 7.84229 19.5006 7.80242C19.5978 7.76256 19.6863 7.70393 19.7608 7.62989C19.8354 7.55586 19.8946 7.46786 19.9352 7.37092C19.9757 7.27399 19.9968 7.17001 19.9972 7.06494C19.9975 6.95986 19.9772 6.85574 19.9373 6.75852C19.8975 6.6613 19.8389 6.57289 19.7648 6.49832L19.197 5.93054ZM8.00129 18.3978C7.52679 18.3978 7.06296 18.2571 6.66843 17.9935C6.2739 17.7299 5.9664 17.3552 5.78482 16.9168C5.60324 16.4784 5.55573 15.996 5.6483 15.5307C5.74087 15.0653 5.96936 14.6378 6.30488 14.3023C6.6404 13.9668 7.06787 13.7383 7.53325 13.6457C7.99863 13.5532 8.481 13.6007 8.91938 13.7822C9.35776 13.9638 9.73244 14.2713 9.99606 14.6658C10.2597 15.0604 10.4004 15.5242 10.4004 15.9987C10.4004 16.635 10.1476 17.2452 9.6977 17.6951C9.24778 18.145 8.63757 18.3978 8.00129 18.3978Z" fill="#110013"/>
</svg>
