<svg width="24" height="24" viewBox="0 0 24 24" fill="none" xmlns="http://www.w3.org/2000/svg">
<path d="M12 4C16.4 4 20 7.6 20 12C20 16.4 16.4 20 12 20C7.6 20 4 16.4 4 12C4 7.6 7.6 4 12 4ZM9.04 12.56L11.44 14.96C11.76 15.28 12.24 15.28 12.56 14.96C12.88 14.64 12.88 14.16 12.56 13.84L11.52 12.8H14.4C14.88 12.8 15.2 12.48 15.2 12C15.2 11.52 14.88 11.2 14.4 11.2H11.52L12.56 10.16C12.88 9.84 12.88 9.36 12.56 9.04C12.24 8.72 11.76 8.72 11.44 9.04L9.04 11.44C8.72 11.76 8.72 12.24 9.04 12.56Z" fill="#110013"/>
</svg>
