<svg width="24" height="24" viewBox="0 0 24 24" fill="none" xmlns="http://www.w3.org/2000/svg">
<path d="M19.1111 11.1667H4.88889C4.35556 11.1667 4 11.5 4 12C4 12.5 4.35556 12.8333 4.88889 12.8333H19.1111C19.6444 12.8333 20 12.5 20 12C20 11.5 19.6444 11.1667 19.1111 11.1667ZM4.88889 8.66667H19.1111C19.6444 8.66667 20 8.33333 20 7.83333C20 7.33333 19.6444 7 19.1111 7H4.88889C4.35556 7 4 7.33333 4 7.83333C4 8.33333 4.35556 8.66667 4.88889 8.66667ZM19.1111 15.3333H4.88889C4.35556 15.3333 4 15.6667 4 16.1667C4 16.6667 4.35556 17 4.88889 17H19.1111C19.6444 17 20 16.6667 20 16.1667C20 15.6667 19.6444 15.3333 19.1111 15.3333Z" fill="#110013"/>
</svg>
