<svg width="24" height="24" viewBox="0 0 24 24" fill="none" xmlns="http://www.w3.org/2000/svg">
<path d="M19.376 12C19.7742 11.5741 19.9965 11.02 20 10.4444C20 9.82561 19.7471 9.23211 19.2971 8.79453C18.847 8.35694 18.2365 8.11111 17.6 8.11111H13.456C13.5838 7.75969 13.6231 7.38362 13.5707 7.01439C13.5183 6.64515 13.3757 6.29349 13.1548 5.98885C12.9339 5.68421 12.6411 5.43546 12.301 5.26342C11.9609 5.09137 11.5834 5.00105 11.2 5H6.4C5.76348 5 5.15303 5.24583 4.70294 5.68342C4.25286 6.121 4 6.71449 4 7.33333C4.00353 7.90893 4.22577 8.46295 4.624 8.88889C4.23044 9.31668 4.01285 9.8705 4.01285 10.4444C4.01285 11.0184 4.23044 11.5722 4.624 12C4.23044 12.4278 4.01285 12.9816 4.01285 13.5556C4.01285 14.1295 4.23044 14.6833 4.624 15.1111C4.22577 15.5371 4.00353 16.0911 4 16.6667C4 17.2855 4.25286 17.879 4.70294 18.3166C5.15303 18.7542 5.76348 19 6.4 19H17.6C18.0622 18.9976 18.5139 18.8655 18.9007 18.6195C19.2876 18.3736 19.5931 18.0243 19.7807 17.6136C19.9683 17.2029 20.0298 16.7482 19.9581 16.3043C19.8863 15.8604 19.6841 15.4461 19.376 15.1111C19.7696 14.6833 19.9871 14.1295 19.9871 13.5556C19.9871 12.9816 19.7696 12.4278 19.376 12ZM11.2 17.4444H6.4C6.18783 17.4444 5.98434 17.3625 5.83431 17.2166C5.68429 17.0708 5.6 16.8729 5.6 16.6667C5.6 16.4604 5.68429 16.2626 5.83431 16.1167C5.98434 15.9708 6.18783 15.8889 6.4 15.8889H11.2C11.4122 15.8889 11.6157 15.9708 11.7657 16.1167C11.9157 16.2626 12 16.4604 12 16.6667C12 16.8729 11.9157 17.0708 11.7657 17.2166C11.6157 17.3625 11.4122 17.4444 11.2 17.4444ZM11.2 14.3333H6.4C6.18783 14.3333 5.98434 14.2514 5.83431 14.1055C5.68429 13.9597 5.6 13.7618 5.6 13.5556C5.6 13.3493 5.68429 13.1514 5.83431 13.0056C5.98434 12.8597 6.18783 12.7778 6.4 12.7778H11.2C11.4122 12.7778 11.6157 12.8597 11.7657 13.0056C11.9157 13.1514 12 13.3493 12 13.5556C12 13.7618 11.9157 13.9597 11.7657 14.1055C11.6157 14.2514 11.4122 14.3333 11.2 14.3333ZM11.2 11.2222H6.4C6.18783 11.2222 5.98434 11.1403 5.83431 10.9944C5.68429 10.8486 5.6 10.6507 5.6 10.4444C5.6 10.2382 5.68429 10.0403 5.83431 9.89447C5.98434 9.74861 6.18783 9.66667 6.4 9.66667H11.2C11.4122 9.66667 11.6157 9.74861 11.7657 9.89447C11.9157 10.0403 12 10.2382 12 10.4444C12 10.6507 11.9157 10.8486 11.7657 10.9944C11.6157 11.1403 11.4122 11.2222 11.2 11.2222ZM11.2 8.11111H6.4C6.18783 8.11111 5.98434 8.02917 5.83431 7.88331C5.68429 7.73744 5.6 7.53961 5.6 7.33333C5.6 7.12705 5.68429 6.92922 5.83431 6.78336C5.98434 6.6375 6.18783 6.55556 6.4 6.55556H11.2C11.4122 6.55556 11.6157 6.6375 11.7657 6.78336C11.9157 6.92922 12 7.12705 12 7.33333C12 7.53961 11.9157 7.73744 11.7657 7.88331C11.6157 8.02917 11.4122 8.11111 11.2 8.11111ZM18.152 17.2189C18.0811 17.2916 17.9954 17.3492 17.9004 17.388C17.8053 17.4269 17.7031 17.4461 17.6 17.4444H13.456C13.6478 16.9427 13.6478 16.3906 13.456 15.8889H17.6C17.8122 15.8889 18.0157 15.9708 18.1657 16.1167C18.3157 16.2626 18.4 16.4604 18.4 16.6667C18.3985 16.7701 18.3758 16.8723 18.3332 16.9671C18.2907 17.0619 18.229 17.1475 18.152 17.2189ZM18.152 14.1078C18.0811 14.1805 17.9954 14.2381 17.9004 14.2769C17.8053 14.3158 17.7031 14.335 17.6 14.3333H13.456C13.6478 13.8316 13.6478 13.2795 13.456 12.7778H17.6C17.8122 12.7778 18.0157 12.8597 18.1657 13.0056C18.3157 13.1514 18.4 13.3493 18.4 13.5556C18.3985 13.659 18.3758 13.7611 18.3332 13.856C18.2907 13.9508 18.229 14.0364 18.152 14.1078ZM18.152 10.9967C18.0811 11.0694 17.9954 11.127 17.9004 11.1658C17.8053 11.2046 17.7031 11.2239 17.6 11.2222H13.456C13.6478 10.7205 13.6478 10.1684 13.456 9.66667H17.6C17.8122 9.66667 18.0157 9.74861 18.1657 9.89447C18.3157 10.0403 18.4 10.2382 18.4 10.4444C18.3985 10.5479 18.3758 10.65 18.3332 10.7449C18.2907 10.8397 18.229 10.9253 18.152 10.9967Z" fill="#110013"/>
</svg>
