<svg width="24" height="24" viewBox="0 0 24 24" fill="none" xmlns="http://www.w3.org/2000/svg">
<circle cx="12" cy="12" r="10" fill="#FF1360"/>
<path d="M14.9727 15.4619V17H8.16406V15.6875L11.3838 12.2354C11.7074 11.8753 11.9626 11.5586 12.1494 11.2852C12.3363 11.0072 12.4707 10.7588 12.5527 10.54C12.6393 10.3167 12.6826 10.1048 12.6826 9.9043C12.6826 9.60352 12.6325 9.34603 12.5322 9.13184C12.432 8.91309 12.2839 8.74447 12.0879 8.62598C11.8965 8.50749 11.6595 8.44824 11.377 8.44824C11.0762 8.44824 10.8164 8.52116 10.5977 8.66699C10.3835 8.81283 10.2194 9.01562 10.1055 9.27539C9.99609 9.53516 9.94141 9.8291 9.94141 10.1572H7.96582C7.96582 9.56478 8.1071 9.02246 8.38965 8.53027C8.6722 8.03353 9.07096 7.63932 9.58594 7.34766C10.1009 7.05143 10.7116 6.90332 11.418 6.90332C12.1152 6.90332 12.7031 7.01725 13.1816 7.24512C13.6647 7.46842 14.0293 7.79199 14.2754 8.21582C14.526 8.63509 14.6514 9.13639 14.6514 9.71973C14.6514 10.0479 14.599 10.3691 14.4941 10.6836C14.3893 10.9935 14.2389 11.3034 14.043 11.6133C13.8516 11.9186 13.6191 12.2285 13.3457 12.543C13.0723 12.8574 12.7692 13.1833 12.4365 13.5205L10.707 15.4619H14.9727Z" fill="white"/>
</svg>
