<svg width="24" height="24" viewBox="0 0 24 24" fill="none" xmlns="http://www.w3.org/2000/svg">
<path d="M10.88 7.79721L11.2727 7.3841V9.89773C11.2727 10.0834 11.3494 10.2615 11.4857 10.3928C11.6221 10.5241 11.8071 10.5979 12 10.5979C12.1929 10.5979 12.3779 10.5241 12.5143 10.3928C12.6507 10.2615 12.7273 10.0834 12.7273 9.89773V7.3841L13.12 7.7692C13.186 7.84098 13.2666 7.89895 13.3569 7.93951C13.4471 7.98006 13.545 8.00234 13.6446 8.00497C13.7441 8.00759 13.8432 7.99051 13.9356 7.95477C14.028 7.91903 14.1118 7.8654 14.1818 7.79721C14.25 7.73212 14.3041 7.65468 14.341 7.56935C14.3779 7.48403 14.3969 7.39251 14.3969 7.30008C14.3969 7.20765 14.3779 7.11613 14.341 7.03081C14.3041 6.94549 14.25 6.86805 14.1818 6.80296L12.5164 5.19956C12.4472 5.13581 12.3656 5.08585 12.2764 5.05252C12.0993 4.98249 11.9007 4.98249 11.7236 5.05252C11.6344 5.08585 11.5528 5.13581 11.4836 5.19956L9.81818 6.77495C9.67738 6.91051 9.59827 7.09437 9.59827 7.28608C9.59827 7.47779 9.67738 7.66165 9.81818 7.79721C9.95899 7.93277 10.15 8.00892 10.3491 8.00892C10.5482 8.00892 10.7392 7.93277 10.88 7.79721ZM12 11.9983C11.5685 11.9983 11.1466 12.1214 10.7878 12.3523C10.429 12.5831 10.1494 12.9111 9.98426 13.2949C9.81913 13.6788 9.77592 14.1011 9.86011 14.5086C9.94429 14.916 10.1521 15.2903 10.4572 15.5841C10.7624 15.8778 11.1511 16.0779 11.5743 16.1589C11.9976 16.24 12.4363 16.1984 12.8349 16.0394C13.2336 15.8804 13.5744 15.6112 13.8141 15.2658C14.0539 14.9203 14.1818 14.5142 14.1818 14.0988C14.1818 13.5417 13.9519 13.0074 13.5428 12.6135C13.1336 12.2196 12.5787 11.9983 12 11.9983ZM12 14.799C11.8562 14.799 11.7155 14.7579 11.5959 14.681C11.4763 14.604 11.3831 14.4947 11.3281 14.3667C11.273 14.2388 11.2586 14.098 11.2867 13.9622C11.3148 13.8264 11.384 13.7016 11.4857 13.6037C11.5875 13.5058 11.717 13.4391 11.8581 13.4121C11.9992 13.385 12.1454 13.3989 12.2783 13.4519C12.4112 13.5049 12.5248 13.5946 12.6047 13.7098C12.6846 13.8249 12.7273 13.9603 12.7273 14.0988C12.7273 14.2845 12.6507 14.4626 12.5143 14.5939C12.3779 14.7252 12.1929 14.799 12 14.799ZM6.90909 14.0988C6.90909 14.2373 6.95174 14.3726 7.03166 14.4878C7.11157 14.6029 7.22516 14.6927 7.35805 14.7457C7.49094 14.7986 7.63717 14.8125 7.77825 14.7855C7.91932 14.7585 8.04891 14.6918 8.15062 14.5939C8.25233 14.496 8.3216 14.3712 8.34966 14.2354C8.37772 14.0996 8.36332 13.9588 8.30828 13.8308C8.25323 13.7029 8.16001 13.5935 8.04041 13.5166C7.92082 13.4397 7.7802 13.3986 7.63636 13.3986C7.44348 13.3986 7.25849 13.4724 7.1221 13.6037C6.98571 13.735 6.90909 13.9131 6.90909 14.0988ZM17.0909 14.0988C17.0909 13.9603 17.0483 13.8249 16.9683 13.7098C16.8884 13.5946 16.7748 13.5049 16.642 13.4519C16.5091 13.3989 16.3628 13.385 16.2218 13.4121C16.0807 13.4391 15.9511 13.5058 15.8494 13.6037C15.7477 13.7016 15.6784 13.8264 15.6503 13.9622C15.6223 14.098 15.6367 14.2388 15.6917 14.3667C15.7468 14.4947 15.84 14.604 15.9596 14.681C16.0792 14.7579 16.2198 14.799 16.3636 14.799C16.5565 14.799 16.7415 14.7252 16.8779 14.5939C17.0143 14.4626 17.0909 14.2845 17.0909 14.0988ZM17.8182 9.19756H14.9091C14.7162 9.19756 14.5312 9.27132 14.3948 9.40263C14.2584 9.53394 14.1818 9.71203 14.1818 9.89773C14.1818 10.0834 14.2584 10.2615 14.3948 10.3928C14.5312 10.5241 14.7162 10.5979 14.9091 10.5979H17.8182C18.0111 10.5979 18.1961 10.6717 18.3324 10.803C18.4688 10.9343 18.5455 11.1124 18.5455 11.2981V16.8995C18.5455 17.0852 18.4688 17.2633 18.3324 17.3946C18.1961 17.5259 18.0111 17.5997 17.8182 17.5997H6.18182C5.98893 17.5997 5.80395 17.5259 5.66756 17.3946C5.53117 17.2633 5.45455 17.0852 5.45455 16.8995V11.2981C5.45455 11.1124 5.53117 10.9343 5.66756 10.803C5.80395 10.6717 5.98893 10.5979 6.18182 10.5979H9.09091C9.28379 10.5979 9.46878 10.5241 9.60517 10.3928C9.74156 10.2615 9.81818 10.0834 9.81818 9.89773C9.81818 9.71203 9.74156 9.53394 9.60517 9.40263C9.46878 9.27132 9.28379 9.19756 9.09091 9.19756H6.18182C5.60316 9.19756 5.04821 9.41886 4.63904 9.81279C4.22987 10.2067 4 10.741 4 11.2981V16.8995C4 17.4566 4.22987 17.9908 4.63904 18.3848C5.04821 18.7787 5.60316 19 6.18182 19H17.8182C18.3968 19 18.9518 18.7787 19.361 18.3848C19.7701 17.9908 20 17.4566 20 16.8995V11.2981C20 10.741 19.7701 10.2067 19.361 9.81279C18.9518 9.41886 18.3968 9.19756 17.8182 9.19756Z" fill="#110013"/>
</svg>
