<svg width="24" height="24" viewBox="0 0 24 24" fill="none" xmlns="http://www.w3.org/2000/svg">
<path d="M12.2119 4.00333C8.80106 3.89383 6 6.49519 6 9.71972C6 13.3792 9.6865 16.035 11.7528 19.8544C11.8577 20.0484 12.1507 20.0486 12.256 19.8547C14.1252 16.418 17.32 14.1135 17.9121 10.8027C18.5251 7.37656 15.8581 4.12044 12.2119 4.00333ZM12.0041 12.7157C10.2672 12.7157 8.8591 11.3743 8.8591 9.71972C8.8591 8.06514 10.2672 6.72372 12.0041 6.72372C13.741 6.72372 15.1491 8.06514 15.1491 9.71972C15.1491 11.3743 13.741 12.7157 12.0041 12.7157Z" fill="#110013"/>
</svg>
