<svg width="24" height="24" viewBox="0 0 24 24" xmlns="http://www.w3.org/2000/svg">
<path d="M18.2222 4C18.1201 3.99994 18.0189 4.02059 17.9245 4.06077C17.8301 4.10096 17.7444 4.15988 17.6721 4.23418C17.5999 4.30848 17.5426 4.39669 17.5035 4.49378C17.4645 4.59087 17.4444 4.69493 17.4444 4.8V5.30938C16.7885 6.14594 15.9594 6.82153 15.0176 7.28697C14.0758 7.75242 13.0449 7.996 12 8H7.33333C6.7147 8.00069 6.1216 8.25377 5.68416 8.70371C5.24672 9.15365 5.00068 9.76369 5 10.4V12C5.00068 12.6363 5.24672 13.2464 5.68416 13.6963C6.1216 14.1462 6.7147 14.3993 7.33333 14.4H7.70961L5.84082 18.8851C5.79004 19.0068 5.76942 19.1395 5.78082 19.2714C5.79222 19.4032 5.83528 19.5301 5.90614 19.6406C5.97699 19.7512 6.07342 19.8419 6.18677 19.9046C6.30012 19.9673 6.42684 20.0001 6.55556 20H9.66667C9.81892 20.0001 9.96784 19.9542 10.0949 19.8679C10.222 19.7816 10.3216 19.6589 10.3814 19.5148L12.4999 14.4304C13.457 14.5027 14.3896 14.776 15.2401 15.2335C16.0905 15.6911 16.8408 16.323 17.4444 17.0905V17.6C17.4444 17.8122 17.5264 18.0157 17.6722 18.1657C17.8181 18.3157 18.0159 18.4 18.2222 18.4C18.4285 18.4 18.6263 18.3157 18.7722 18.1657C18.9181 18.0157 19 17.8122 19 17.6V4.8C19.0001 4.69493 18.98 4.59087 18.9409 4.49378C18.9018 4.39669 18.8446 4.30848 18.7723 4.23418C18.7001 4.15988 18.6143 4.10095 18.5199 4.06077C18.4255 4.02059 18.3244 3.99994 18.2222 4ZM7.33333 12.8C7.1271 12.7999 6.92935 12.7155 6.78351 12.5655C6.63768 12.4155 6.55569 12.2121 6.55556 12V10.4C6.5557 10.1879 6.63768 9.98447 6.78352 9.83447C6.92935 9.68448 7.1271 9.60014 7.33333 9.6H8.11111V12.8H7.33333ZM9.15397 18.4H7.73513L9.40158 14.4H10.8204L9.15397 18.4ZM17.4444 14.8174C15.9109 13.5179 13.987 12.805 12 12.8H9.66667V9.59996H12C13.987 9.59474 15.9109 8.88169 17.4444 7.58209V14.8174Z" />
</svg>
