<svg width="24" height="24" viewBox="0 0 24 24" fill="none" xmlns="http://www.w3.org/2000/svg">
<path d="M12 4C7.6 4 4 7.6 4 12C4 16.4 7.6 20 12 20C16.4 20 20 16.4 20 12C20 7.6 16.4 4 12 4ZM14.96 12.56L12.56 14.96C12.24 15.28 11.76 15.28 11.44 14.96C11.12 14.64 11.12 14.16 11.44 13.84L12.48 12.8H9.6C9.12 12.8 8.8 12.48 8.8 12C8.8 11.52 9.12 11.2 9.6 11.2H12.48L11.44 10.16C11.12 9.84 11.12 9.36 11.44 9.04C11.76 8.72 12.24 8.72 12.56 9.04L14.96 11.44C15.28 11.76 15.28 12.24 14.96 12.56Z" fill="#110013"/>
</svg>
