<svg width="24" height="24" viewBox="0 0 24 24" fill="none" xmlns="http://www.w3.org/2000/svg">
<path d="M20.1826 16.3381L18.3081 14.4255C17.9049 14.0436 17.3962 13.7906 16.8476 13.699C16.2989 13.6074 15.7353 13.6813 15.2291 13.9112L14.4141 13.0993C15.3745 11.8208 15.8131 10.2273 15.6416 8.63965C15.4702 7.05195 14.7013 5.58792 13.4899 4.54227C12.2785 3.49662 10.7144 2.94699 9.11258 3.00403C7.51073 3.06108 5.99005 3.72055 4.85666 4.8497C3.72326 5.97885 3.06131 7.49384 3.00405 9.08968C2.94679 10.6855 3.49848 12.2437 4.54807 13.4506C5.59765 14.6575 7.06718 15.4235 8.66085 15.5943C10.2545 15.7651 11.854 15.3282 13.1372 14.3714L13.9432 15.1743C13.6852 15.6792 13.5927 16.252 13.6788 16.812C13.7649 17.3721 14.0253 17.891 14.4232 18.2958L16.343 20.2085C16.8524 20.7153 17.5429 21 18.2628 21C18.9827 21 19.6732 20.7153 20.1826 20.2085C20.4414 19.9564 20.647 19.6554 20.7873 19.3231C20.9277 18.9907 21 18.6338 21 18.2733C21 17.9127 20.9277 17.5558 20.7873 17.2235C20.647 16.8912 20.4414 16.5902 20.1826 16.3381ZM12.5033 12.5129C11.8697 13.1426 11.0628 13.5711 10.1848 13.7442C9.30684 13.9173 8.39702 13.8273 7.57033 13.4856C6.74363 13.1438 6.03715 12.5656 5.54013 11.8241C5.04311 11.0825 4.77784 10.2108 4.77784 9.31914C4.77784 8.42745 5.04311 7.55576 5.54013 6.8142C6.03715 6.07263 6.74363 5.49445 7.57033 5.15269C8.39702 4.81094 9.30684 4.72094 10.1848 4.89407C11.0628 5.0672 11.8697 5.49569 12.5033 6.12541C12.925 6.54444 13.2596 7.04222 13.4878 7.59025C13.7161 8.13828 13.8336 8.7258 13.8336 9.31914C13.8336 9.91248 13.7161 10.5 13.4878 11.048C13.2596 11.5961 12.925 12.0938 12.5033 12.5129ZM18.9057 18.8913C18.8216 18.9758 18.7214 19.043 18.6111 19.0888C18.5007 19.1346 18.3823 19.1581 18.2628 19.1581C18.1432 19.1581 18.0249 19.1346 17.9145 19.0888C17.8042 19.043 17.704 18.9758 17.6198 18.8913L15.7 16.9787C15.6151 16.8948 15.5478 16.795 15.5018 16.6851C15.4558 16.5751 15.4322 16.4572 15.4322 16.3381C15.4322 16.219 15.4558 16.1011 15.5018 15.9911C15.5478 15.8812 15.6151 15.7814 15.7 15.6976C15.7842 15.613 15.8844 15.5459 15.9947 15.5001C16.1051 15.4543 16.2234 15.4307 16.343 15.4307C16.4625 15.4307 16.5809 15.4543 16.6912 15.5001C16.8016 15.5459 16.9017 15.613 16.9859 15.6976L18.9057 17.6102C18.9906 17.694 19.058 17.7938 19.104 17.9038C19.1499 18.0137 19.1736 18.1316 19.1736 18.2507C19.1736 18.3698 19.1499 18.4877 19.104 18.5977C19.058 18.7076 18.9906 18.8074 18.9057 18.8913Z" fill="#110013"/>
</svg>
