<svg width="24" height="24" viewBox="0 0 24 24" fill="none" xmlns="http://www.w3.org/2000/svg">
<path d="M14.128 13.248L10.776 14.448C10.5998 14.5119 10.4517 14.6356 10.3574 14.7976C10.2631 14.9595 10.2287 15.1495 10.2601 15.3342C10.2916 15.5189 10.3868 15.6868 10.5294 15.8085C10.6719 15.9302 10.8526 15.9979 11.04 16C11.1328 15.9999 11.2248 15.9836 11.312 15.952L14.672 14.752C14.7736 14.7185 14.8674 14.6649 14.9479 14.5945C15.0284 14.5241 15.094 14.4383 15.1408 14.3421C15.1875 14.2459 15.2145 14.1413 15.2202 14.0344C15.2258 13.9276 15.21 13.8208 15.1736 13.7202C15.1372 13.6196 15.081 13.5273 15.0084 13.4488C14.9357 13.3704 14.848 13.3072 14.7505 13.2632C14.6531 13.2192 14.5477 13.1952 14.4408 13.1925C14.3339 13.1899 14.2275 13.2088 14.128 13.248ZM10.928 9.248C10.7781 9.099 10.5754 9.01536 10.364 9.01536C10.1527 9.01536 9.94989 9.099 9.8 9.248C9.72563 9.32298 9.63715 9.3825 9.53966 9.42311C9.44218 9.46373 9.33761 9.48464 9.232 9.48464C9.12639 9.48464 9.02183 9.46373 8.92434 9.42311C8.82685 9.3825 8.73837 9.32298 8.664 9.248C8.51411 9.099 8.31135 9.01536 8.1 9.01536C7.88865 9.01536 7.68589 9.099 7.536 9.248C7.46102 9.32237 7.4015 9.41085 7.36089 9.50834C7.32027 9.60582 7.29936 9.71039 7.29936 9.816C7.29936 9.92161 7.32027 10.0262 7.36089 10.1237C7.4015 10.2211 7.46102 10.3096 7.536 10.384C7.986 10.8334 8.596 11.0859 9.232 11.0859C9.868 11.0859 10.478 10.8334 10.928 10.384C11.0034 10.3072 11.0625 10.2161 11.1019 10.1159C11.1412 10.0158 11.1599 9.90874 11.157 9.80119C11.154 9.69365 11.1293 9.5878 11.0845 9.49C11.0396 9.3922 10.9755 9.30445 10.896 9.232L10.928 9.248ZM16.528 9.248C16.3781 9.099 16.1753 9.01536 15.964 9.01536C15.7527 9.01536 15.5499 9.099 15.4 9.248C15.3256 9.32298 15.2371 9.3825 15.1397 9.42311C15.0422 9.46373 14.9376 9.48464 14.832 9.48464C14.7264 9.48464 14.6218 9.46373 14.5243 9.42311C14.4269 9.3825 14.3384 9.32298 14.264 9.248C14.1141 9.099 13.9113 9.01536 13.7 9.01536C13.4887 9.01536 13.2859 9.099 13.136 9.248C13.061 9.32237 13.0015 9.41085 12.9609 9.50834C12.9203 9.60582 12.8994 9.71039 12.8994 9.816C12.8994 9.92161 12.9203 10.0262 12.9609 10.1237C13.0015 10.2211 13.061 10.3096 13.136 10.384C13.586 10.8334 14.196 11.0859 14.832 11.0859C15.468 11.0859 16.078 10.8334 16.528 10.384C16.6034 10.3072 16.6625 10.2161 16.7019 10.1159C16.7412 10.0158 16.7599 9.90874 16.757 9.80119C16.754 9.69365 16.7293 9.5878 16.6845 9.49C16.6396 9.3922 16.5755 9.30445 16.496 9.232L16.528 9.248ZM12 4C10.4178 4 8.87103 4.46919 7.55544 5.34824C6.23985 6.22729 5.21447 7.47672 4.60897 8.93853C4.00347 10.4003 3.84504 12.0089 4.15372 13.5607C4.4624 15.1126 5.22433 16.538 6.34315 17.6569C7.46197 18.7757 8.88743 19.5376 10.4393 19.8463C11.9911 20.155 13.5997 19.9965 15.0615 19.391C16.5233 18.7855 17.7727 17.7602 18.6518 16.4446C19.5308 15.129 20 13.5822 20 12C20 10.9494 19.7931 9.90914 19.391 8.93853C18.989 7.96793 18.3997 7.08601 17.6569 6.34315C16.914 5.60028 16.0321 5.011 15.0615 4.60896C14.0909 4.20693 13.0506 4 12 4ZM12 18.4C10.7342 18.4 9.49683 18.0246 8.44435 17.3214C7.39188 16.6182 6.57157 15.6186 6.08717 14.4492C5.60277 13.2797 5.47603 11.9929 5.72298 10.7514C5.96992 9.50994 6.57946 8.36957 7.47452 7.47452C8.36958 6.57946 9.50995 5.96992 10.7514 5.72297C11.9929 5.47603 13.2797 5.60277 14.4492 6.08717C15.6186 6.57157 16.6182 7.39187 17.3214 8.44435C18.0246 9.49682 18.4 10.7342 18.4 12C18.4 13.6974 17.7257 15.3252 16.5255 16.5255C15.3253 17.7257 13.6974 18.4 12 18.4Z" fill="#110013"/>
</svg>
