<svg width="24" height="24" viewBox="0 0 24 24" fill="none" xmlns="http://www.w3.org/2000/svg">
<path d="M12 20C16.4183 20 20 16.4183 20 12C20 7.58172 16.4183 4 12 4C7.58172 4 4 7.58172 4 12C4 16.4183 7.58172 20 12 20Z" fill="#039BE5"/>
<path d="M7.66106 11.8267L15.3744 8.85267C15.7324 8.72334 16.0451 8.94 15.9291 9.48134L14.6164 15.668C14.5191 16.1067 14.2584 16.2133 13.8937 16.0067L11.8937 14.5327L10.9291 15.462C10.8224 15.5687 10.7324 15.6587 10.5257 15.6587L10.6677 13.6233L14.3744 10.2747C14.5357 10.1327 14.3384 10.0527 14.1257 10.194L9.54506 13.078L7.57039 12.462C7.14173 12.326 7.13239 12.0333 7.66106 11.8267Z" fill="white"/>
</svg>
