<svg width="24" height="24" viewBox="0 0 24 24" fill="none" xmlns="http://www.w3.org/2000/svg">
<path d="M12.002 4H11.998C7.587 4 4 7.588 4 12C4 13.75 4.564 15.372 5.523 16.689L4.526 19.661L7.601 18.678C8.866 19.516 10.375 20 12.002 20C16.413 20 20 16.411 20 12C20 7.589 16.413 4 12.002 4Z" fill="#00AE1B"/>
<path d="M16.6566 15.297C16.4636 15.842 15.6976 16.294 15.0866 16.426C14.6686 16.515 14.1226 16.586 12.2846 15.824C9.93356 14.85 8.41956 12.461 8.30156 12.306C8.18856 12.151 7.35156 11.041 7.35156 9.893C7.35156 8.745 7.93456 8.186 8.16956 7.946C8.36256 7.749 8.68156 7.659 8.98756 7.659C9.08656 7.659 9.17556 7.664 9.25556 7.668C9.49056 7.678 9.60856 7.692 9.76356 8.063C9.95656 8.528 10.4266 9.676 10.4826 9.794C10.5396 9.912 10.5966 10.072 10.5166 10.227C10.4416 10.387 10.3756 10.458 10.2576 10.594C10.1396 10.73 10.0276 10.834 9.90956 10.98C9.80156 11.107 9.67956 11.243 9.81556 11.478C9.95156 11.708 10.4216 12.475 11.1136 13.091C12.0066 13.886 12.7306 14.14 12.9896 14.248C13.1826 14.328 13.4126 14.309 13.5536 14.159C13.7326 13.966 13.9536 13.646 14.1786 13.331C14.3386 13.105 14.5406 13.077 14.7526 13.157C14.9686 13.232 16.1116 13.797 16.3466 13.914C16.5816 14.032 16.7366 14.088 16.7936 14.187C16.8496 14.286 16.8496 14.751 16.6566 15.297Z" fill="white"/>
</svg>
